<svg width="558" height="365" viewBox="0 0 558 365" fill="none" xmlns="http://www.w3.org/2000/svg">
<g clip-path="url(#clip0_4_11)">
<path d="M216.646 327.032C213.644 328.184 210.42 328.472 207.286 327.87C204.152 327.267 201.212 325.793 198.751 323.591C192.483 317.848 190.518 308.386 188.919 299.626L184.19 273.713L194.092 281.156C201.212 286.508 208.493 292.032 213.424 299.785C218.354 307.537 220.506 318.12 216.545 326.509" fill="#E6E6E6"/>
<path d="M215.8 358.404C216.802 350.435 217.833 342.364 217.13 334.31C216.505 327.157 214.506 320.17 210.436 314.442C208.276 311.407 205.647 308.807 202.669 306.758C201.892 306.223 201.177 307.566 201.95 308.099C207.105 311.655 211.091 316.906 213.336 323.095C215.814 329.978 216.212 337.48 215.785 344.791C215.527 349.212 214.979 353.604 214.428 357.991C214.384 358.189 214.411 358.398 214.504 358.576C214.596 358.753 214.746 358.886 214.925 358.947C215.107 359 215.301 358.973 215.464 358.872C215.628 358.77 215.749 358.602 215.8 358.404Z" fill="#F2F2F2"/>
<path d="M206.147 344.303C204.86 346.439 203.09 348.178 201.008 349.351C198.926 350.524 196.602 351.092 194.261 351C188.244 350.688 183.228 346.104 178.712 341.752L165.356 328.879L174.196 328.417C180.553 328.085 187.074 327.775 193.128 329.915C199.183 332.055 204.767 337.205 205.874 344.046" fill="#E6E6E6"/>
<path d="M218.632 362.985C213.809 353.668 208.214 343.313 198.216 340.003C195.437 339.086 192.522 338.757 189.629 339.035C188.717 339.121 188.945 340.655 189.855 340.569C194.704 340.13 199.544 341.528 203.559 344.527C207.423 347.398 210.432 351.39 212.978 355.623C214.538 358.216 215.935 360.918 217.332 363.618C217.779 364.48 219.084 363.858 218.632 362.985V362.985Z" fill="#F2F2F2"/>
<path d="M347.92 176.336L242.756 271.483C241.433 272.678 239.73 273.25 238.021 273.076C236.311 272.901 234.735 271.993 233.638 270.551L189.306 212.162C188.212 210.717 187.688 208.858 187.848 206.992C188.008 205.126 188.839 203.405 190.16 202.207L295.323 107.06C296.647 105.866 298.35 105.293 300.059 105.468C301.769 105.643 303.345 106.55 304.442 107.992L348.773 166.382C349.868 167.826 350.392 169.686 350.232 171.552C350.072 173.418 349.241 175.139 347.92 176.336Z" fill="#CCCCCC"/>
<path d="M343.706 173.471L240.96 266.431C240.278 267.046 239.401 267.341 238.52 267.251C237.639 267.161 236.827 266.694 236.262 265.951L193.934 210.2C193.371 209.456 193.101 208.498 193.183 207.537C193.265 206.576 193.694 205.689 194.374 205.072L297.12 112.113C297.802 111.497 298.679 111.202 299.56 111.292C300.441 111.382 301.253 111.85 301.818 112.593L344.145 168.343C344.709 169.087 344.979 170.045 344.897 171.007C344.814 171.968 344.386 172.854 343.706 173.471Z" fill="white"/>
<path d="M348.442 192.931L327.31 190.771L342.435 177.777L350.582 188.508C350.9 188.918 351.097 189.422 351.148 189.956C351.198 190.49 351.1 191.028 350.866 191.5C350.712 191.82 350.502 192.104 350.248 192.336C349.998 192.561 349.709 192.729 349.399 192.831C349.09 192.933 348.764 192.967 348.442 192.931Z" fill="#CCCCCC"/>
<path d="M306.005 151.61L254.027 198.637C253.71 198.924 253.344 199.14 252.95 199.273C252.556 199.406 252.142 199.453 251.731 199.411C251.321 199.369 250.922 199.239 250.557 199.029C250.192 198.818 249.869 198.532 249.606 198.185C249.343 197.839 249.145 197.439 249.023 197.009C248.902 196.579 248.859 196.127 248.898 195.678C248.936 195.23 249.055 194.795 249.247 194.397C249.44 193.999 249.703 193.646 250.02 193.359L301.997 146.332C302.315 146.045 302.681 145.829 303.075 145.696C303.469 145.563 303.883 145.516 304.294 145.558C304.704 145.6 305.103 145.73 305.468 145.94C305.832 146.151 306.156 146.437 306.419 146.784C306.682 147.13 306.88 147.53 307.001 147.96C307.123 148.39 307.166 148.842 307.127 149.291C307.089 149.739 306.97 150.174 306.777 150.572C306.585 150.97 306.322 151.323 306.005 151.61Z" fill="#CCCCCC"/>
<path d="M280.566 155.705L245.512 187.421C244.871 188.001 244.045 188.279 243.216 188.194C242.386 188.11 241.622 187.669 241.091 186.969C240.559 186.269 240.304 185.367 240.382 184.462C240.459 183.557 240.863 182.723 241.504 182.143L276.559 150.427C277.2 149.847 278.026 149.569 278.855 149.653C279.684 149.738 280.449 150.179 280.98 150.879C281.512 151.579 281.767 152.48 281.689 153.386C281.611 154.291 281.208 155.125 280.566 155.705Z" fill="#CCCCCC"/>
<path d="M226.25 220.568C231.669 220.568 236.062 215.773 236.062 209.857C236.062 203.941 231.669 199.145 226.25 199.145C220.83 199.145 216.437 203.941 216.437 209.857C216.437 215.773 220.83 220.568 226.25 220.568Z" fill="white"/>
<path d="M304.303 188.386C306.037 188.386 307.443 186.851 307.443 184.958C307.443 183.065 306.037 181.53 304.303 181.53C302.568 181.53 301.163 183.065 301.163 184.958C301.163 186.851 302.568 188.386 304.303 188.386Z" fill="#E6E6E6"/>
<path d="M312.764 180.73C314.498 180.73 315.904 179.195 315.904 177.302C315.904 175.409 314.498 173.875 312.764 173.875C311.03 173.875 309.624 175.409 309.624 177.302C309.624 179.195 311.03 180.73 312.764 180.73Z" fill="#E6E6E6"/>
<path d="M321.225 173.075C322.96 173.075 324.365 171.54 324.365 169.647C324.365 167.754 322.96 166.219 321.225 166.219C319.491 166.219 318.085 167.754 318.085 169.647C318.085 171.54 319.491 173.075 321.225 173.075Z" fill="#E6E6E6"/>
<path d="M271.179 357.016L278.387 357.015L281.816 326.663L271.177 326.663L271.179 357.016Z" fill="#FFB8B8"/>
<path d="M269.34 354.447L283.536 354.446H283.537C284.725 354.446 285.901 354.702 286.999 355.198C288.097 355.694 289.094 356.422 289.934 357.339C290.774 358.256 291.441 359.344 291.895 360.543C292.35 361.741 292.584 363.025 292.584 364.322V364.643L269.34 364.644L269.34 354.447Z" fill="#2F2E41"/>
<path d="M245.307 357.016L252.516 357.015L255.945 326.663L245.306 326.663L245.307 357.016Z" fill="#FFB8B8"/>
<path d="M243.469 354.447L257.665 354.446H257.665C258.853 354.446 260.03 354.702 261.128 355.198C262.225 355.694 263.223 356.422 264.063 357.339C264.903 358.256 265.569 359.344 266.024 360.543C266.478 361.741 266.712 363.025 266.712 364.322V364.643L243.469 364.644L243.469 354.447Z" fill="#2F2E41"/>
<path d="M252.541 347.729H252.54L246.41 347.727C245.724 347.73 245.064 347.44 244.571 346.92C244.077 346.4 243.789 345.691 243.767 344.943L243.574 339.088C242.024 292.27 240.422 243.858 250.346 222.098L250.424 221.927L283.28 220.629L289.877 286.684C290.158 289.502 290.055 292.349 289.571 295.134L280.851 345.295C280.733 345.975 280.395 346.586 279.899 347.017C279.403 347.448 278.781 347.67 278.148 347.643L271.262 347.399C270.902 347.384 270.548 347.288 270.223 347.117C269.897 346.947 269.607 346.706 269.37 346.409C269.133 346.112 268.955 345.765 268.845 345.389C268.735 345.014 268.697 344.618 268.733 344.226L274.142 297.832C274.326 295.83 274.16 293.808 273.651 291.873L266.924 266.202C266.869 265.99 266.748 265.805 266.582 265.678C266.416 265.552 266.216 265.491 266.014 265.506C265.812 265.522 265.622 265.613 265.474 265.763C265.326 265.914 265.23 266.116 265.202 266.334L255.162 345.238C255.072 345.927 254.757 346.558 254.276 347.016C253.795 347.473 253.179 347.726 252.541 347.729Z" fill="#2F2E41"/>
<path d="M256.47 154.589C264.446 154.589 270.912 147.53 270.912 138.824C270.912 130.117 264.446 123.059 256.47 123.059C248.495 123.059 242.029 130.117 242.029 138.824C242.029 147.53 248.495 154.589 256.47 154.589Z" fill="#FFB8B8"/>
<path d="M281.74 225.505H251.857C251.477 225.505 251.102 225.416 250.756 225.243C250.411 225.071 250.104 224.819 249.855 224.506C249.607 224.192 249.423 223.824 249.317 223.426C249.21 223.028 249.184 222.609 249.239 222.199L250.715 211.161L242.046 185.131C241.151 182.444 240.818 179.572 241.072 176.726C241.327 173.881 242.161 171.133 243.515 168.685C244.869 166.237 246.707 164.152 248.896 162.581C251.084 161.01 253.567 159.993 256.163 159.606C259.86 159.043 263.626 159.788 266.908 161.73C270.19 163.672 272.816 166.71 274.402 170.4L276.307 174.823L284.342 222.09C284.413 222.507 284.399 222.936 284.301 223.346C284.203 223.756 284.023 224.138 283.775 224.464C283.526 224.789 283.215 225.052 282.864 225.232C282.512 225.412 282.129 225.505 281.74 225.505H281.74Z" fill="white"/>
<path d="M218.657 253.193C219.557 252.965 220.399 252.524 221.126 251.902C221.853 251.28 222.446 250.492 222.863 249.592C223.28 248.693 223.512 247.705 223.542 246.697C223.571 245.69 223.398 244.687 223.034 243.761L246.32 186.332L233 182.669L214.299 240.272C212.914 241.042 211.835 242.34 211.268 243.92C210.7 245.5 210.684 247.253 211.221 248.845C211.758 250.438 212.812 251.76 214.182 252.561C215.553 253.363 217.145 253.587 218.657 253.193H218.657Z" fill="#FFB8B8"/>
<path d="M243.168 196.602L230.213 189.982C229.844 189.794 229.517 189.521 229.254 189.182C228.99 188.844 228.797 188.447 228.687 188.019C228.577 187.591 228.552 187.143 228.615 186.704C228.678 186.265 228.827 185.846 229.052 185.475L236.925 172.495C237.819 170.443 239.422 168.862 241.383 168.098C243.343 167.333 245.501 167.449 247.384 168.418C249.266 169.387 250.72 171.132 251.427 173.269C252.133 175.407 252.035 177.763 251.153 179.821L247.082 194.689C246.965 195.114 246.766 195.507 246.497 195.841C246.229 196.175 245.898 196.442 245.526 196.624C245.155 196.805 244.752 196.898 244.345 196.894C243.938 196.89 243.536 196.791 243.168 196.602H243.168Z" fill="white"/>
<path d="M315.793 105.41C316.075 106.37 316.159 107.386 316.042 108.386C315.925 109.386 315.608 110.345 315.114 111.197C314.62 112.049 313.962 112.772 313.184 113.316C312.406 113.86 311.529 114.211 310.614 114.344L277.352 165.588L267.649 154.973L303.395 107.941C303.292 106.247 303.76 104.571 304.713 103.23C305.666 101.889 307.036 100.976 308.565 100.664C310.093 100.352 311.673 100.663 313.005 101.537C314.337 102.412 315.329 103.79 315.793 105.41Z" fill="#FFB8B8"/>
<path d="M285.044 159.573C285.091 160.014 285.051 160.461 284.926 160.884C284.8 161.307 284.593 161.695 284.318 162.022L274.705 173.453C273.537 175.336 271.733 176.636 269.689 177.069C267.645 177.502 265.527 177.032 263.799 175.763C262.072 174.493 260.876 172.528 260.474 170.298C260.071 168.067 260.496 165.754 261.654 163.864L267.835 149.835C268.012 149.434 268.265 149.08 268.578 148.796C268.891 148.512 269.257 148.306 269.65 148.19C270.043 148.074 270.454 148.052 270.855 148.126C271.257 148.199 271.639 148.366 271.976 148.615L283.819 157.372C284.156 157.621 284.44 157.947 284.652 158.327C284.863 158.706 284.997 159.131 285.044 159.573Z" fill="white"/>
<path d="M275.446 132.225C275.436 130.798 275.255 129.379 274.905 128.004C272.579 118.618 263.989 112.985 255.37 114.399C253.693 113.874 251.958 113.609 250.214 113.611C245.777 113.611 241.487 115.342 238.118 118.493C234.749 121.644 232.522 126.006 231.841 130.792L224.879 179.723H262.51L268.586 137.022C268.812 135.436 268.865 133.825 268.744 132.225H275.446Z" fill="#2F2E41"/>
<path d="M322.217 365H198.152C197.996 365 197.846 364.932 197.736 364.812C197.626 364.692 197.564 364.528 197.564 364.358C197.564 364.188 197.626 364.025 197.736 363.904C197.846 363.784 197.996 363.716 198.152 363.716H322.217C322.373 363.716 322.523 363.784 322.633 363.904C322.743 364.025 322.805 364.188 322.805 364.358C322.805 364.528 322.743 364.692 322.633 364.812C322.523 364.932 322.373 365 322.217 365Z" fill="#CCCCCC"/>
<path d="M447.206 49.8523C448.066 49.7619 448.934 49.8786 449.749 50.1941C450.564 50.5095 451.305 51.0162 451.921 51.6783C452.537 52.3404 453.012 53.1418 453.314 54.0262C453.615 54.9105 453.735 55.8563 453.666 56.7968L472.897 66.0365L463.723 72.5007L446.867 62.7355C445.428 62.5031 444.116 61.7023 443.181 60.4849C442.246 59.2674 441.753 57.7178 441.795 56.1298C441.836 54.5418 442.41 53.0256 443.408 51.8687C444.405 50.7117 445.756 49.9942 447.206 49.8523V49.8523Z" fill="#A0616A"/>
<path d="M524.78 38.3264C532.756 38.3264 539.221 31.2682 539.221 22.5614C539.221 13.8547 532.756 6.7965 524.78 6.7965C516.804 6.7965 510.338 13.8547 510.338 22.5614C510.338 31.2682 516.804 38.3264 524.78 38.3264Z" fill="#A0616A"/>
<path d="M498.643 247.353L491.434 247.352L488.005 217L498.644 217L498.643 247.353Z" fill="#A0616A"/>
<path d="M500.481 254.981L477.238 254.98V254.659C477.238 253.362 477.472 252.078 477.926 250.879C478.381 249.681 479.047 248.592 479.887 247.675C480.727 246.758 481.725 246.031 482.822 245.534C483.92 245.038 485.097 244.783 486.285 244.783H486.285L500.481 244.783L500.481 254.981Z" fill="#2F2E41"/>
<path d="M528.63 247.353L521.421 247.352L517.992 217L528.631 217L528.63 247.353Z" fill="#A0616A"/>
<path d="M530.468 254.981L507.225 254.98V254.659C507.225 253.362 507.459 252.078 507.914 250.879C508.368 249.681 509.035 248.592 509.875 247.675C510.715 246.758 511.712 246.031 512.81 245.534C513.907 245.038 515.084 244.783 516.272 244.783H516.273L530.469 244.783L530.468 254.981Z" fill="#2F2E41"/>
<path d="M528.288 240.888C528.18 240.888 528.073 240.88 527.966 240.866L517.414 239.448C516.796 239.366 516.224 239.048 515.8 238.551C515.375 238.053 515.126 237.408 515.094 236.73L512.02 161.141C512.009 160.926 511.933 160.722 511.804 160.56C511.675 160.398 511.5 160.288 511.307 160.247C511.113 160.206 510.913 160.237 510.738 160.334C510.563 160.432 510.422 160.591 510.339 160.785L502.44 189.531L500.813 235.705C500.8 236.103 500.71 236.494 500.551 236.852C500.392 237.211 500.167 237.53 499.889 237.789C499.612 238.048 499.289 238.241 498.939 238.357C498.59 238.473 498.223 238.508 497.86 238.462L488.723 237.287C488.069 237.206 487.467 236.86 487.035 236.319C486.603 235.778 486.372 235.08 486.386 234.363L487.162 190.899L493.353 122.674L493.63 122.685L531.274 124.269L530.935 238.009C530.932 238.773 530.652 239.506 530.156 240.045C529.66 240.585 528.989 240.888 528.288 240.888H528.288Z" fill="#2F2E41"/>
<path d="M529.847 130.504C529.824 130.504 529.801 130.504 529.778 130.503L491.865 129.419C491.494 129.408 491.128 129.312 490.793 129.137C490.458 128.962 490.16 128.712 489.919 128.402C489.678 128.093 489.5 127.732 489.395 127.343C489.291 126.953 489.263 126.544 489.313 126.142L496.598 67.6093C497.053 63.657 498.266 59.8539 500.159 56.4483C502.052 53.0427 504.581 50.1111 507.582 47.8449C510.221 45.8612 513.219 44.5172 516.374 43.9031C519.529 43.289 522.768 43.419 525.873 44.2845C539.106 47.9452 547.045 63.4572 543.57 78.8633L532.417 128.306C532.273 128.932 531.942 129.487 531.477 129.885C531.012 130.283 530.438 130.501 529.847 130.504Z" fill="#3F3D56"/>
<path d="M480.109 84.0233C477.611 84.0266 475.166 83.2336 473.074 81.7416L450.965 65.9068C450.641 65.6751 450.368 65.3687 450.165 65.0092C449.961 64.6497 449.833 64.2458 449.788 63.8261C449.743 63.4065 449.783 62.9812 449.905 62.5803C450.028 62.1794 450.229 61.8126 450.495 61.5059L453.826 57.6672C454.189 57.2464 454.66 56.9548 455.177 56.8303C455.694 56.7059 456.234 56.7544 456.725 56.9695L481.422 67.7052L504.3 49.8701C505.37 49.0362 506.586 48.4538 507.873 48.1597C509.159 47.8656 510.488 47.8662 511.774 48.1615C513.061 48.4568 514.277 49.0404 515.346 49.8753C516.415 50.7102 517.314 51.7782 517.985 53.0119C518.657 54.2455 519.087 55.6178 519.247 57.0421C519.408 58.4663 519.296 59.9114 518.918 61.2859C518.541 62.6605 517.906 63.9346 517.054 65.0275C516.203 66.1205 515.152 67.0086 513.97 67.6356L485.695 82.628C483.954 83.5485 482.044 84.0256 480.109 84.0233Z" fill="#3F3D56"/>
<path d="M529.784 37.6377C532.248 38.2727 535.22 38.7601 536.981 36.7745C537.293 36.3996 537.571 35.9934 537.813 35.5613L540.115 31.7246C541.879 28.7855 543.673 25.7698 544.42 22.3521C544.849 20.3883 544.916 18.351 544.617 16.3587C544.319 14.3663 543.661 12.4585 542.681 10.7461C541.701 9.03374 540.42 7.55095 538.911 6.38383C537.402 5.21672 535.696 4.38855 533.891 3.94747C530.454 3.10738 527.09 1.66192 523.576 1.92558C520.062 2.18925 515.941 2.10269 512.992 -1.90735e-05C513.176 0.937403 514.17 5.07934 514.17 5.07934C514.17 5.07934 509.736 9.52021 508.846 10.6275C510.01 10.0642 511.277 9.79968 512.55 9.85434C513.822 9.909 515.066 10.2814 516.186 10.9428C517.306 11.6043 518.272 12.5373 519.01 13.67C519.748 14.8028 520.238 16.1051 520.443 17.4771C520.695 19.1625 520.547 21.0317 521.464 22.4151C522.337 23.7308 523.902 24.1918 525.217 24.9514C527.113 26.1305 528.56 28.0102 529.298 30.2516C530.036 32.4931 530.017 34.9487 529.243 37.1756L529.784 37.6377Z" fill="#2F2E41"/>
<path d="M512.445 136.15H392.736C391.232 136.148 389.789 135.494 388.725 134.333C387.661 133.171 387.062 131.596 387.061 129.954V63.4885C387.062 61.8458 387.661 60.2709 388.725 59.1093C389.789 57.9478 391.232 57.2944 392.736 57.2925H512.445C513.949 57.2944 515.392 57.9478 516.456 59.1093C517.52 60.2709 518.119 61.8458 518.12 63.4885V129.954C518.119 131.596 517.52 133.171 516.456 134.333C515.392 135.494 513.949 136.148 512.445 136.15Z" fill="#CCCCCC"/>
<path d="M511.069 131.644H394.112C393.337 131.643 392.594 131.306 392.046 130.708C391.498 130.109 391.189 129.298 391.189 128.452V64.9905C391.189 64.1443 391.498 63.333 392.046 62.7346C392.594 62.1362 393.337 61.7996 394.112 61.7987H511.069C511.844 61.7996 512.587 62.1362 513.135 62.7346C513.683 63.333 513.992 64.1443 513.993 64.9905V128.452C513.992 129.298 513.683 130.109 513.135 130.708C512.587 131.306 511.844 131.643 511.069 131.644Z" fill="white"/>
<path d="M504.295 147.666L491.142 133.307L508.005 133.773V145.989C508.01 146.459 507.884 146.92 507.645 147.311C507.405 147.702 507.063 148.005 506.664 148.18C506.396 148.303 506.109 148.366 505.818 148.367C505.535 148.366 505.254 148.304 504.992 148.183C504.731 148.063 504.494 147.887 504.295 147.666Z" fill="#CCCCCC"/>
<path d="M496.829 93.8753H437.662C436.933 93.8753 436.233 93.5588 435.717 92.9954C435.2 92.432 434.911 91.6679 434.911 90.8712C434.911 90.0745 435.2 89.3104 435.717 88.747C436.233 88.1836 436.933 87.8671 437.662 87.8671H496.829C497.558 87.8671 498.258 88.1836 498.774 88.747C499.29 89.3104 499.58 90.0745 499.58 90.8712C499.58 91.6679 499.29 92.432 498.774 92.9954C498.258 93.5588 497.558 93.8753 496.829 93.8753Z" fill="#CCCCCC"/>
<path d="M477.565 81.1079H437.662C437.301 81.1085 436.942 81.0312 436.608 80.8805C436.274 80.7298 435.97 80.5086 435.714 80.2296C435.458 79.9506 435.255 79.6192 435.116 79.2545C434.978 78.8897 434.906 78.4987 434.906 78.1038C434.906 77.709 434.978 77.318 435.116 76.9532C435.255 76.5885 435.458 76.2571 435.714 75.9781C435.97 75.6991 436.274 75.4779 436.608 75.3272C436.942 75.1765 437.301 75.0992 437.662 75.0998H477.565C478.295 75.0998 478.995 75.4163 479.511 75.9796C480.027 76.543 480.317 77.3071 480.317 78.1038C480.317 78.9006 480.027 79.6647 479.511 80.228C478.995 80.7914 478.295 81.1079 477.565 81.1079Z" fill="#CCCCCC"/>
<path d="M413.17 93.8753C417.92 93.8753 421.77 89.6722 421.77 84.4875C421.77 79.3028 417.92 75.0998 413.17 75.0998C408.421 75.0998 404.571 79.3028 404.571 84.4875C404.571 89.6722 408.421 93.8753 413.17 93.8753Z" fill="white"/>
<path d="M478.595 118.343C480.115 118.343 481.347 116.998 481.347 115.338C481.347 113.679 480.115 112.334 478.595 112.334C477.075 112.334 475.843 113.679 475.843 115.338C475.843 116.998 477.075 118.343 478.595 118.343Z" fill="#E6E6E6"/>
<path d="M488.227 118.343C489.747 118.343 490.979 116.998 490.979 115.338C490.979 113.679 489.747 112.334 488.227 112.334C486.707 112.334 485.475 113.679 485.475 115.338C485.475 116.998 486.707 118.343 488.227 118.343Z" fill="#E6E6E6"/>
<path d="M497.859 118.343C499.378 118.343 500.611 116.998 500.611 115.338C500.611 113.679 499.378 112.334 497.859 112.334C496.339 112.334 495.107 113.679 495.107 115.338C495.107 116.998 496.339 118.343 497.859 118.343Z" fill="#E6E6E6"/>
<path d="M510.591 128.245C510.686 127.308 510.968 126.404 511.418 125.598C511.867 124.792 512.473 124.104 513.193 123.581C513.913 123.058 514.729 122.714 515.583 122.573C516.438 122.432 517.311 122.497 518.14 122.764L530.36 104.105L534.279 115.23L522.074 131.243C521.571 132.734 520.584 133.972 519.301 134.722C518.018 135.472 516.528 135.682 515.112 135.312C513.697 134.943 512.455 134.019 511.622 132.717C510.788 131.414 510.422 129.823 510.591 128.245H510.591Z" fill="#A0616A"/>
<path d="M524.589 127.239C524.397 127.256 524.204 127.251 524.013 127.223C523.629 127.167 523.261 127.019 522.935 126.791C522.61 126.562 522.334 126.258 522.128 125.901L519.545 121.428C519.261 120.94 519.119 120.369 519.137 119.791C519.154 119.213 519.331 118.654 519.644 118.188L535.286 94.7251L525.119 66.1133C524.211 63.5958 524.245 60.7896 525.215 58.2995C526.184 55.8094 528.011 53.8348 530.301 52.8013C531.596 52.2087 532.994 51.9366 534.396 52.0045C535.798 52.0725 537.169 52.4787 538.41 53.1941C539.651 53.9095 540.732 54.9163 541.574 56.1419C542.416 57.3676 542.999 58.7818 543.28 60.2827L549.588 93.8995C550.027 96.2702 549.897 98.7245 549.212 101.025C548.527 103.325 547.31 105.393 545.678 107.029L526.151 126.493C525.72 126.924 525.171 127.186 524.589 127.239Z" fill="#3F3D56"/>
<path d="M557.412 256.524H433.347C433.191 256.524 433.041 256.457 432.931 256.336C432.821 256.216 432.759 256.053 432.759 255.882C432.759 255.712 432.821 255.549 432.931 255.429C433.041 255.308 433.191 255.241 433.347 255.241H557.412C557.568 255.241 557.718 255.308 557.828 255.429C557.938 255.549 558 255.712 558 255.882C558 256.053 557.938 256.216 557.828 256.336C557.718 256.457 557.568 256.524 557.412 256.524Z" fill="#CCCCCC"/>
<path d="M150.888 96.7785H31.1799C29.6751 96.7766 28.2324 96.1232 27.1683 94.9617C26.1043 93.8001 25.5057 92.2252 25.504 90.5825V24.1172C25.5057 22.4745 26.1043 20.8996 27.1683 19.7381C28.2324 18.5765 29.6751 17.9231 31.1799 17.9213H150.888C152.393 17.9231 153.835 18.5765 154.899 19.7381C155.964 20.8996 156.562 22.4745 156.564 24.1172V90.5825C156.562 92.2252 155.963 93.8001 154.899 94.9617C153.835 96.1232 152.393 96.7766 150.888 96.7785Z" fill="#CCCCCC"/>
<path d="M149.512 92.2723H32.5558C31.7806 92.2714 31.0374 91.9348 30.4892 91.3364C29.9411 90.738 29.6328 89.9267 29.6319 89.0805V25.6193C29.6328 24.773 29.9411 23.9617 30.4892 23.3633C31.0374 22.7649 31.7806 22.4284 32.5558 22.4274H149.512C150.287 22.4284 151.03 22.7649 151.578 23.3633C152.127 23.9617 152.435 24.773 152.436 25.6193V89.0805C152.435 89.9267 152.127 90.738 151.578 91.3364C151.03 91.9348 150.287 92.2714 149.512 92.2723Z" fill="white"/>
<path d="M142.739 108.295L129.585 93.9361L146.449 94.4015V106.617C146.453 107.088 146.328 107.548 146.088 107.94C145.849 108.331 145.507 108.634 145.107 108.809C144.839 108.931 144.552 108.995 144.262 108.996C143.978 108.995 143.697 108.932 143.436 108.812C143.174 108.692 142.937 108.516 142.739 108.295Z" fill="#CCCCCC"/>
<path d="M135.272 54.504H76.1058C75.3759 54.504 74.676 54.1875 74.1599 53.6241C73.6438 53.0607 73.3539 52.2966 73.3539 51.4999C73.3539 50.7032 73.6438 49.9391 74.1599 49.3757C74.676 48.8123 75.3759 48.4958 76.1058 48.4958H135.272C136.002 48.4958 136.702 48.8123 137.218 49.3757C137.734 49.9391 138.024 50.7032 138.024 51.4999C138.024 52.2966 137.734 53.0607 137.218 53.6241C136.702 54.1875 136.002 54.504 135.272 54.504Z" fill="#CCCCCC"/>
<path d="M116.008 41.7366H76.1058C75.3759 41.7366 74.676 41.4201 74.1599 40.8568C73.6438 40.2934 73.3539 39.5293 73.3539 38.7326C73.3539 37.9358 73.6438 37.1717 74.1599 36.6084C74.676 36.045 75.3759 35.7285 76.1058 35.7285H116.008C116.738 35.7285 117.438 36.045 117.954 36.6084C118.47 37.1717 118.76 37.9358 118.76 38.7326C118.76 39.5293 118.47 40.2934 117.954 40.8568C117.438 41.4201 116.738 41.7366 116.008 41.7366Z" fill="#CCCCCC"/>
<path d="M51.6136 54.504C56.3631 54.504 60.2133 50.301 60.2133 45.1162C60.2133 39.9315 56.3631 35.7285 51.6136 35.7285C46.8641 35.7285 43.0139 39.9315 43.0139 45.1162C43.0139 50.301 46.8641 54.504 51.6136 54.504Z" fill="white"/>
<path d="M117.039 78.9713C118.558 78.9713 119.79 77.6263 119.79 75.9672C119.79 74.3081 118.558 72.9631 117.039 72.9631C115.519 72.9631 114.287 74.3081 114.287 75.9672C114.287 77.6263 115.519 78.9713 117.039 78.9713Z" fill="#E6E6E6"/>
<path d="M126.67 78.9713C128.19 78.9713 129.422 77.6263 129.422 75.9672C129.422 74.3081 128.19 72.9631 126.67 72.9631C125.15 72.9631 123.918 74.3081 123.918 75.9672C123.918 77.6263 125.15 78.9713 126.67 78.9713Z" fill="#E6E6E6"/>
<path d="M136.302 78.9713C137.822 78.9713 139.054 77.6263 139.054 75.9672C139.054 74.3081 137.822 72.9631 136.302 72.9631C134.782 72.9631 133.55 74.3081 133.55 75.9672C133.55 77.6263 134.782 78.9713 136.302 78.9713Z" fill="#E6E6E6"/>
<path d="M145.923 11.5353C145.11 11.8549 144.371 12.3653 143.758 13.0305C143.145 13.6957 142.673 14.4996 142.375 15.3855C142.077 16.2713 141.961 17.2177 142.035 18.1579C142.109 19.0981 142.37 20.0092 142.801 20.8271L129.03 38.1512L139.855 39.7165L151.272 23.0253C152.483 22.1437 153.355 20.8079 153.724 19.2711C154.093 17.7343 153.932 16.1032 153.273 14.6869C152.613 13.2706 151.501 12.1675 150.147 11.5867C148.792 11.0058 147.289 10.9875 145.923 11.5353Z" fill="#FFB8B8"/>
<path d="M53.9761 18.471C54.2698 19.3585 54.3817 20.3054 54.3039 21.2452C54.2262 22.185 53.9605 23.0947 53.5258 23.9103C53.0911 24.7259 52.4979 25.4275 51.7879 25.9657C51.0779 26.504 50.2685 26.8657 49.4166 27.0255L45.9898 49.6555L37.977 41.5586L42.4596 21.3102C42.3085 19.7301 42.6937 18.1444 43.542 16.8536C44.3904 15.5628 45.6431 14.6565 47.0626 14.3066C48.4822 13.9566 49.97 14.1872 51.2442 14.9548C52.5184 15.7223 53.4905 16.9734 53.9761 18.471V18.471Z" fill="#FFB8B8"/>
<path d="M75.497 247.353L82.7057 247.352L86.1349 217L75.4958 217L75.497 247.353Z" fill="#FFB8B8"/>
<path d="M73.6581 244.783L87.8544 244.783H87.855C89.0431 244.783 90.2195 245.038 91.3171 245.534C92.4148 246.031 93.4121 246.758 94.2522 247.675C95.0923 248.592 95.7587 249.681 96.2134 250.879C96.668 252.078 96.9021 253.362 96.902 254.659V254.98L73.6586 254.981L73.6581 244.783Z" fill="#2F2E41"/>
<path d="M38.4538 247.353L45.6625 247.352L49.0916 217L38.4526 217L38.4538 247.353Z" fill="#FFB8B8"/>
<path d="M36.6149 244.783L50.8112 244.783H50.8118C51.9998 244.783 53.1763 245.038 54.2739 245.534C55.3716 246.031 56.3689 246.758 57.209 247.675C58.0491 248.592 58.7155 249.681 59.1702 250.879C59.6248 252.078 59.8588 253.362 59.8588 254.659V254.98L36.6154 254.981L36.6149 244.783Z" fill="#2F2E41"/>
<path d="M73.9921 40.122C81.968 40.122 88.4337 33.0638 88.4337 24.357C88.4337 15.6503 81.968 8.59208 73.9921 8.59208C66.0163 8.59208 59.5506 15.6503 59.5506 24.357C59.5506 33.0638 66.0163 40.122 73.9921 40.122Z" fill="#FFB8B8"/>
<path d="M72.261 237.269L71.067 154.208C71.0639 153.973 70.9824 153.747 70.8377 153.574C70.693 153.4 70.4951 153.29 70.2812 153.264C70.0674 153.239 69.8524 153.299 69.6766 153.435C69.5009 153.57 69.3765 153.771 69.327 154L49.7523 235.245C49.605 235.895 49.2577 236.47 48.7685 236.874C48.2793 237.278 47.6778 237.487 47.0646 237.465L36.3103 236.963C35.9447 236.946 35.5863 236.846 35.2578 236.67C34.9293 236.494 34.6379 236.245 34.4018 235.94C34.1658 235.635 33.9903 235.28 33.8864 234.896C33.7825 234.513 33.7526 234.111 33.7984 233.715L50.4084 129.31L50.4424 129.015L96.7065 131.404L97.0082 131.419L87.0875 237.443C87.0354 238.169 86.7352 238.847 86.2464 239.342C85.7576 239.838 85.116 240.114 84.449 240.117H74.9067C74.2123 240.114 73.5465 239.814 73.052 239.282C72.5575 238.75 72.2736 238.027 72.261 237.269Z" fill="#2F2E41"/>
<path d="M108.801 138.441L41.6663 132.426C41.2611 132.39 40.869 132.252 40.5205 132.024C40.1719 131.795 39.8763 131.482 39.6565 131.109C39.4368 130.735 39.2989 130.312 39.2534 129.871C39.208 129.43 39.2563 128.983 39.3946 128.566L49.9671 96.6571L50.5754 58.785C50.5975 57.4102 50.8694 56.0539 51.3754 54.7947C51.8814 53.5355 52.6114 52.3985 53.523 51.4497C54.4346 50.5009 55.5098 49.7591 56.6861 49.2674C57.8624 48.7757 59.1164 48.5438 60.3754 48.5853L64.84 44.1675H81.1976L82.6219 46.2059L94.0037 48.1152C96.031 48.4645 97.9016 49.5163 99.3394 51.1151C100.777 52.7139 101.706 54.775 101.989 56.9942L111.64 135.177C111.69 135.585 111.66 135.999 111.552 136.394C111.443 136.788 111.259 137.152 111.011 137.462C110.763 137.772 110.457 138.02 110.114 138.191C109.771 138.361 109.398 138.45 109.021 138.451C108.948 138.451 108.875 138.447 108.801 138.441Z" fill="#2F2E41"/>
<path d="M95.7209 51.7865L124.346 42.6311L137.301 24.0119C137.658 23.4991 138.161 23.1311 138.732 22.9664C139.302 22.8017 139.906 22.8498 140.448 23.103L148.537 26.8771C148.882 27.038 149.191 27.2771 149.445 27.5785C149.699 27.8799 149.891 28.2368 150.009 28.6255C150.127 29.0141 150.167 29.4257 150.129 29.8329C150.09 30.24 149.972 30.6335 149.783 30.9872L140.101 49.1237C138.525 52.0905 136.125 54.4334 133.249 55.8138L99.5802 72.0611L95.7209 51.7865Z" fill="#2F2E41"/>
<path d="M40.8021 65.482C39.0915 64.1367 37.7273 62.3328 36.8412 60.2444C35.955 58.156 35.5769 55.8535 35.7432 53.5592L36.9994 35.3894C37.0513 34.6637 37.3515 33.9859 37.8405 33.4909C38.3295 32.996 38.9712 32.7202 39.6381 32.7185H39.6615L49.1468 32.8107C49.5354 32.8145 49.9184 32.9118 50.2687 33.0955C50.6189 33.2792 50.9278 33.5448 51.1735 33.8735C51.4191 34.2023 51.5953 34.586 51.6898 34.9975C51.7842 35.409 51.7945 35.8381 51.7198 36.2544L49.9599 46.0567L62.5194 51.8498L51.9432 74.3108L40.8021 65.482Z" fill="#2F2E41"/>
<path d="M82.3934 5.45337C82.3934 5.45337 67.2909 -3.4238 59.0591 7.05316C50.8273 17.5301 62.1954 33.9138 62.1954 33.9138L78.3932 36.1439C78.3932 36.1439 78.9812 24.124 82.8378 24.3573C86.6944 24.5907 98.6718 9.42331 82.3934 5.45337Z" fill="#2F2E41"/>
<path d="M124.653 255.882H0.587987C0.432043 255.882 0.282486 255.815 0.172217 255.694C0.061948 255.574 0 255.411 0 255.241C0 255.07 0.061948 254.907 0.172217 254.787C0.282486 254.666 0.432043 254.599 0.587987 254.599H124.653C124.809 254.599 124.959 254.666 125.069 254.787C125.179 254.907 125.241 255.07 125.241 255.241C125.241 255.411 125.179 255.574 125.069 255.694C124.959 255.815 124.809 255.882 124.653 255.882Z" fill="#CCCCCC"/>
</g>
<defs>
<clipPath id="clip0_4_11">
<rect width="558" height="365" fill="white"/>
</clipPath>
</defs>
</svg>
